<svg xmlns="http://www.w3.org/2000/svg" viewBox="0 0 100 100">
  <!-- Background circle -->
  <circle cx="50" cy="50" r="50" fill="#c2673e"/>
  <!-- Basket base -->
  <ellipse cx="50" cy="68" rx="26" ry="10" fill="#4a3728"/>
  <rect x="24" y="55" width="52" height="16" rx="6" fill="#7a5c45"/>
  <!-- Basket weave lines -->
  <line x1="34" y1="55" x2="34" y2="71" stroke="#4a3728" stroke-width="2" opacity="0.5"/>
  <line x1="44" y1="55" x2="44" y2="71" stroke="#4a3728" stroke-width="2" opacity="0.5"/>
  <line x1="54" y1="55" x2="54" y2="71" stroke="#4a3728" stroke-width="2" opacity="0.5"/>
  <line x1="64" y1="55" x2="64" y2="71" stroke="#4a3728" stroke-width="2" opacity="0.5"/>
  <line x1="24" y1="62" x2="76" y2="62" stroke="#4a3728" stroke-width="2" opacity="0.5"/>
  <!-- Basket handle -->
  <path d="M32 56 Q50 36 68 56" stroke="#7a5c45" stroke-width="5" fill="none" stroke-linecap="round"/>
  <!-- Tomato -->
  <circle cx="42" cy="46" r="10" fill="#e8433a"/>
  <path d="M42 37 Q44 32 47 33 Q44 36 42 37Z" fill="#6b8f71"/>
  <path d="M42 37 Q39 31 41 29 Q41 33 42 37Z" fill="#6b8f71"/>
  <!-- Carrot -->
  <path d="M58 50 L65 32 L62 33 Z" fill="#e8916b"/>
  <path d="M65 32 Q66 28 68 27 Q66 30 65 32Z" fill="#6b8f71"/>
  <path d="M65 32 Q68 30 70 31 Q67 33 65 32Z" fill="#6b8f71"/>
  <!-- Leafy green -->
  <path d="M50 48 Q53 40 58 42 Q54 46 50 48Z" fill="#6b8f71"/>
  <path d="M50 48 Q55 44 57 48 Q53 48 50 48Z" fill="#a8c5ad"/>
</svg>
